STARTFONT 2.1
COMMENT  
COMMENT  Public domain font. Share and enjoy.
COMMENT  
COMMENT  WARNING:  This bdf file was generated from a font server using
COMMENT  fstobdf.  The resulting font is subject to the same copyright,
COMMENT  license, and trademark restrictions as the original font.  The
COMMENT  authors and distributors of fstobdf disclaim all liability for
COMMENT  misuse of the program or its output.
COMMENT  
FONT -Simon-Fixed-Medium-R-Normal--15-140-75-75-C-90-ISO8859-1
SIZE 14 75 75
FONTBOUNDINGBOX 9 15 0 -3
STARTPROPERTIES 24
FONTNAME_REGISTRY ""
FOUNDRY "Simon"
FAMILY_NAME "Fixed"
WEIGHT_NAME "Medium"
SLANT "R"
SETWIDTH_NAME "Normal"
ADD_STYLE_NAME ""
PIXEL_SIZE 15
POINT_SIZE 140
RESOLUTION_X 75
RESOLUTION_Y 75
SPACING "C"
AVERAGE_WIDTH 90
CHARSET_REGISTRY "ISO8859"
CHARSET_ENCODING "1"
COPYRIGHT "Public domain font. Share and enjoy."
FONT "-Simon-Fixed-Medium-R-Normal--15-140-75-75-C-90-ISO8859-1"
WEIGHT 10
RESOLUTION 103
X_HEIGHT 12
QUAD_WIDTH 9
DEFAULT_CHAR 0
FONT_ASCENT 12
FONT_DESCENT 3
ENDPROPERTIES
CHARS 224
STARTCHAR C000
ENCODING 0
SWIDTH 617 0
DWIDTH 9 0
BBX 0 0 0 0
BITMAP
ENDCHAR
STARTCHAR C001
ENCODING 1
SWIDTH 617 0
DWIDTH 9 0
BBX 8 7 1 1
BITMAP
18
3c
7e
ff
7e
3c
18
ENDCHAR
STARTCHAR C002
ENCODING 2
SWIDTH 617 0
DWIDTH 9 0
BBX 8 14 1 -2
BITMAP
aa
55
aa
55
aa
55
aa
55
aa
55
aa
55
aa
55
ENDCHAR
STARTCHAR C003
ENCODING 3
SWIDTH 617 0
DWIDTH 9 0
BBX 8 10 1 0
BITMAP
d8
d8
f8
d8
d8
00
0f
06
06
06
ENDCHAR
STARTCHAR C004
ENCODING 4
SWIDTH 617 0
DWIDTH 9 0
BBX 8 10 1 0
BITMAP
f8
c0
f0
c0
c0
1f
18
1e
18
18
ENDCHAR
STARTCHAR C005
ENCODING 5
SWIDTH 617 0
DWIDTH 9 0
BBX 8 10 1 0
BITMAP
78
c0
c0
78
00
1e
1b
1e
1b
1b
ENDCHAR
STARTCHAR C006
ENCODING 6
SWIDTH 617 0
DWIDTH 9 0
BBX 8 10 1 0
BITMAP
c0
c0
c0
f0
00
1f
18
1e
18
18
ENDCHAR
STARTCHAR C007
ENCODING 7
SWIDTH 617 0
DWIDTH 9 0
BBX 6 4 2 6
BITMAP
78
cc
cc
78
ENDCHAR
STARTCHAR C010
ENCODING 8
SWIDTH 617 0
DWIDTH 9 0
BBX 6 8 2 0
BITMAP
30
30
fc
30
30
00
00
fc
ENDCHAR
STARTCHAR C011
ENCODING 9
SWIDTH 617 0
DWIDTH 9 0
BBX 8 10 1 0
BITMAP
cc
ec
dc
cc
cc
00
18
18
18
1f
ENDCHAR
STARTCHAR C012
ENCODING 10
SWIDTH 617 0
DWIDTH 9 0
BBX 8 10 1 0
BITMAP
d8
d8
70
70
20
00
3f
0c
0c
0c
ENDCHAR
STARTCHAR C013
ENCODING 11
SWIDTH 617 0
DWIDTH 9 0
BBX 6 9 0 3
BITMAP
0c
0c
0c
0c
0c
0c
0c
0c
fc
ENDCHAR
STARTCHAR C014
ENCODING 12
SWIDTH 617 0
DWIDTH 9 0
BBX 6 7 0 -3
BITMAP
fc
0c
0c
0c
0c
0c
0c
ENDCHAR
STARTCHAR C015
ENCODING 13
SWIDTH 617 0
DWIDTH 9 0
BBX 5 7 4 -3
BITMAP
f8
c0
c0
c0
c0
c0
c0
ENDCHAR
STARTCHAR C016
ENCODING 14
SWIDTH 617 0
DWIDTH 9 0
BBX 5 9 4 3
BITMAP
c0
c0
c0
c0
c0
c0
c0
c0
f8
ENDCHAR
STARTCHAR C017
ENCODING 15
SWIDTH 617 0
DWIDTH 9 0
BBX 9 15 0 -3
BITMAP
0c00
0c00
0c00
0c00
0c00
0c00
0c00
0c00
ff80
0c00
0c00
0c00
0c00
0c00
0c00
ENDCHAR
STARTCHAR C020
ENCODING 16
SWIDTH 617 0
DWIDTH 9 0
BBX 9 1 0 9
BITMAP
ff80
ENDCHAR
STARTCHAR C021
ENCODING 17
SWIDTH 617 0
DWIDTH 9 0
BBX 9 1 0 6
BITMAP
ff80
ENDCHAR
STARTCHAR C022
ENCODING 18
SWIDTH 617 0
DWIDTH 9 0
BBX 9 1 0 3
BITMAP
ff80
ENDCHAR
STARTCHAR C023
ENCODING 19
SWIDTH 617 0
DWIDTH 9 0
BBX 9 1 0 0
BITMAP
ff80
ENDCHAR
STARTCHAR C024
ENCODING 20
SWIDTH 617 0
DWIDTH 9 0
BBX 9 1 0 -3
BITMAP
ff80
ENDCHAR
STARTCHAR C025
ENCODING 21
SWIDTH 617 0
DWIDTH 9 0
BBX 5 15 4 -3
BITMAP
c0
c0
c0
c0
c0
c0
c0
c0
f8
c0
c0
c0
c0
c0
c0
ENDCHAR
STARTCHAR C026
ENCODING 22
SWIDTH 617 0
DWIDTH 9 0
BBX 6 15 0 -3
BITMAP
0c
0c
0c
0c
0c
0c
0c
0c
fc
0c
0c
0c
0c
0c
0c
ENDCHAR
STARTCHAR C027
ENCODING 23
SWIDTH 617 0
DWIDTH 9 0
BBX 9 9 0 3
BITMAP
0c00
0c00
0c00
0c00
0c00
0c00
0c00
0c00
ff80
ENDCHAR
STARTCHAR C030
ENCODING 24
SWIDTH 617 0
DWIDTH 9 0
BBX 9 7 0 -3
BITMAP
ff80
0c00
0c00
0c00
0c00
0c00
0c00
ENDCHAR
STARTCHAR C031
ENCODING 25
SWIDTH 617 0
DWIDTH 9 0
BBX 2 15 4 -3
BITMAP
c0
c0
c0
c0
c0
c0
c0
c0
c0
c0
c0
c0
c0
c0
c0
ENDCHAR
STARTCHAR C032
ENCODING 26
SWIDTH 617 0
DWIDTH 9 0
BBX 6 9 2 0
BITMAP
18
30
60
c0
60
30
18
00
fc
ENDCHAR
STARTCHAR C033
ENCODING 27
SWIDTH 617 0
DWIDTH 9 0
BBX 6 9 2 0
BITMAP
60
30
18
0c
18
30
60
00
fc
ENDCHAR
STARTCHAR C034
ENCODING 28
SWIDTH 617 0
DWIDTH 9 0
BBX 8 8 1 0
BITMAP
03
7e
e6
66
66
66
66
44
ENDCHAR
STARTCHAR C035
ENCODING 29
SWIDTH 617 0
DWIDTH 9 0
BBX 8 8 1 1
BITMAP
06
0c
ff
18
10
ff
20
60
ENDCHAR
STARTCHAR C036
ENCODING 30
SWIDTH 617 0
DWIDTH 9 0
BBX 8 10 1 0
BITMAP
3c
66
60
f8
60
f8
60
60
63
7e
ENDCHAR
STARTCHAR C037
ENCODING 31
SWIDTH 617 0
DWIDTH 9 0
BBX 2 2 4 3
BITMAP
c0
c0
ENDCHAR
STARTCHAR space
ENCODING 32
SWIDTH 617 0
DWIDTH 9 0
BBX 0 0 0 0
BITMAP
ENDCHAR
STARTCHAR exclam
ENCODING 33
SWIDTH 617 0
DWIDTH 9 0
BBX 2 10 4 0
BITMAP
c0
c0
c0
c0
c0
c0
c0
00
c0
c0
ENDCHAR
STARTCHAR quotedbl
ENCODING 34
SWIDTH 617 0
DWIDTH 9 0
BBX 8 3 1 7
BITMAP
33
66
cc
ENDCHAR
STARTCHAR numbersign
ENCODING 35
SWIDTH 617 0
DWIDTH 9 0
BBX 8 10 1 0
BITMAP
33
33
ff
66
66
66
66
ff
cc
cc
ENDCHAR
STARTCHAR dollar
ENCODING 36
SWIDTH 617 0
DWIDTH 9 0
BBX 8 12 1 -1
BITMAP
18
7e
db
d8
78
1c
1e
1b
db
db
7e
18
ENDCHAR
STARTCHAR percent
ENCODING 37
SWIDTH 617 0
DWIDTH 9 0
BBX 8 10 1 0
BITMAP
60
d1
b3
66
0c
18
36
6d
cb
06
ENDCHAR
STARTCHAR ampersand
ENCODING 38
SWIDTH 617 0
DWIDTH 9 0
BBX 8 10 1 0
BITMAP
1c
36
66
3c
38
6c
c7
c6
6e
3b
ENDCHAR
STARTCHAR apostrophe
ENCODING 39
SWIDTH 617 0
DWIDTH 9 0
BBX 4 3 3 7
BITMAP
30
60
c0
ENDCHAR
STARTCHAR parenleft
ENCODING 40
SWIDTH 617 0
DWIDTH 9 0
BBX 5 12 2 -1
BITMAP
18
30
60
60
c0
c0
c0
c0
60
60
30
18
ENDCHAR
STARTCHAR parenright
ENCODING 41
SWIDTH 617 0
DWIDTH 9 0
BBX 5 12 3 -1
BITMAP
c0
60
30
30
18
18
18
18
30
30
60
c0
ENDCHAR
STARTCHAR asterisk
ENCODING 42
SWIDTH 617 0
DWIDTH 9 0
BBX 8 5 1 2
BITMAP
66
3c
ff
3c
66
ENDCHAR
STARTCHAR plus
ENCODING 43
SWIDTH 617 0
DWIDTH 9 0
BBX 6 5 2 2
BITMAP
30
30
fc
30
30
ENDCHAR
STARTCHAR comma
ENCODING 44
SWIDTH 617 0
DWIDTH 9 0
BBX 4 3 3 -1
BITMAP
30
60
c0
ENDCHAR
STARTCHAR minus
ENCODING 45
SWIDTH 617 0
DWIDTH 9 0
BBX 6 1 2 4
BITMAP
fc
ENDCHAR
STARTCHAR period
ENCODING 46
SWIDTH 617 0
DWIDTH 9 0
BBX 2 2 4 0
BITMAP
c0
c0
ENDCHAR
STARTCHAR slash
ENCODING 47
SWIDTH 617 0
DWIDTH 9 0
BBX 7 11 1 -1
BITMAP
06
04
0c
08
18
10
30
20
60
40
c0
ENDCHAR
STARTCHAR 0
ENCODING 48
SWIDTH 617 0
DWIDTH 9 0
BBX 8 10 1 0
BITMAP
3e
63
c7
cf
db
f3
e3
c3
c6
7c
ENDCHAR
STARTCHAR 1
ENCODING 49
SWIDTH 617 0
DWIDTH 9 0
BBX 5 10 2 0
BITMAP
18
38
78
d8
18
18
18
18
18
18
ENDCHAR
STARTCHAR 2
ENCODING 50
SWIDTH 617 0
DWIDTH 9 0
BBX 8 10 1 0
BITMAP
3e
63
c3
03
06
0c
18
30
63
ff
ENDCHAR
STARTCHAR 3
ENCODING 51
SWIDTH 617 0
DWIDTH 9 0
BBX 8 10 1 0
BITMAP
ff
c6
0c
18
3e
03
03
c3
c6
7c
ENDCHAR
STARTCHAR 4
ENCODING 52
SWIDTH 617 0
DWIDTH 9 0
BBX 8 10 1 0
BITMAP
06
0e
1e
36
66
c7
de
f6
06
06
ENDCHAR
STARTCHAR 5
ENCODING 53
SWIDTH 617 0
DWIDTH 9 0
BBX 8 10 1 0
BITMAP
1f
f0
c0
dc
f6
03
03
c3
c6
7c
ENDCHAR
STARTCHAR 6
ENCODING 54
SWIDTH 617 0
DWIDTH 9 0
BBX 7 10 1 0
BITMAP
3c
66
c6
c0
dc
f6
c6
c6
cc
78
ENDCHAR
STARTCHAR 7
ENCODING 55
SWIDTH 617 0
DWIDTH 9 0
BBX 8 10 1 0
BITMAP
ff
c3
06
0c
0c
18
18
30
30
30
ENDCHAR
STARTCHAR 8
ENCODING 56
SWIDTH 617 0
DWIDTH 9 0
BBX 8 10 1 0
BITMAP
3c
66
c6
6c
3e
63
c3
c3
c6
7c
ENDCHAR
STARTCHAR 9
ENCODING 57
SWIDTH 617 0
DWIDTH 9 0
BBX 7 10 1 0
BITMAP
3c
66
c6
c6
de
76
06
c6
cc
78
ENDCHAR
STARTCHAR colon
ENCODING 58
SWIDTH 617 0
DWIDTH 9 0
BBX 2 7 4 1
BITMAP
c0
c0
00
00
00
c0
c0
ENDCHAR
STARTCHAR semicolon
ENCODING 59
SWIDTH 617 0
DWIDTH 9 0
BBX 3 8 3 0
BITMAP
60
60
00
00
00
60
60
c0
ENDCHAR
STARTCHAR less
ENCODING 60
SWIDTH 617 0
DWIDTH 9 0
BBX 6 10 2 0
BITMAP
0c
18
30
60
c0
c0
60
30
18
0c
ENDCHAR
STARTCHAR equal
ENCODING 61
SWIDTH 617 0
DWIDTH 9 0
BBX 8 4 1 3
BITMAP
ff
00
00
ff
ENDCHAR
STARTCHAR greater
ENCODING 62
SWIDTH 617 0
DWIDTH 9 0
BBX 6 10 2 0
BITMAP
c0
60
30
18
0c
0c
18
30
60
c0
ENDCHAR
STARTCHAR question
ENCODING 63
SWIDTH 617 0
DWIDTH 9 0
BBX 8 10 1 0
BITMAP
3e
63
c6
0c
18
30
30
00
30
30
ENDCHAR
STARTCHAR at
ENCODING 64
SWIDTH 617 0
DWIDTH 9 0
BBX 8 11 1 -1
BITMAP
1e
33
6f
db
db
db
de
d8
c6
dc
70
ENDCHAR
STARTCHAR A
ENCODING 65
SWIDTH 617 0
DWIDTH 9 0
BBX 8 10 1 0
BITMAP
18
18
3c
24
66
6e
7a
e3
c3
c3
ENDCHAR
STARTCHAR B
ENCODING 66
SWIDTH 617 0
DWIDTH 9 0
BBX 8 10 1 0
BITMAP
1e
33
e3
c6
dc
f7
c3
c6
dc
f0
ENDCHAR
STARTCHAR C
ENCODING 67
SWIDTH 617 0
DWIDTH 9 0
BBX 8 10 1 0
BITMAP
1e
33
60
c0
c0
c0
c0
c0
63
3e
ENDCHAR
STARTCHAR D
ENCODING 68
SWIDTH 617 0
DWIDTH 9 0
BBX 8 10 1 0
BITMAP
fc
c6
c3
c3
c3
c3
c3
c6
dc
f0
ENDCHAR
STARTCHAR E
ENCODING 69
SWIDTH 617 0
DWIDTH 9 0
BBX 7 10 1 0
BITMAP
1e
f0
c0
c0
dc
f0
c0
c0
de
f0
ENDCHAR
STARTCHAR F
ENCODING 70
SWIDTH 617 0
DWIDTH 9 0
BBX 7 10 1 0
BITMAP
1e
f0
c0
c0
dc
f0
c0
c0
c0
c0
ENDCHAR
STARTCHAR G
ENCODING 71
SWIDTH 617 0
DWIDTH 9 0
BBX 8 10 1 0
BITMAP
3e
63
c0
c0
c0
cf
c3
c3
66
3c
ENDCHAR
STARTCHAR H
ENCODING 72
SWIDTH 617 0
DWIDTH 9 0
BBX 8 10 1 0
BITMAP
c3
c3
c3
c3
cf
fb
c3
c3
c3
c3
ENDCHAR
STARTCHAR I
ENCODING 73
SWIDTH 617 0
DWIDTH 9 0
BBX 4 10 3 0
BITMAP
70
e0
60
60
60
60
60
60
70
e0
ENDCHAR
STARTCHAR J
ENCODING 74
SWIDTH 617 0
DWIDTH 9 0
BBX 8 10 1 0
BITMAP
03
03
03
03
03
03
c3
c3
63
3e
ENDCHAR
STARTCHAR K
ENCODING 75
SWIDTH 617 0
DWIDTH 9 0
BBX 8 10 1 0
BITMAP
c3
c6
dc
f0
e0
f0
d8
cc
c6
c3
ENDCHAR
STARTCHAR L
ENCODING 76
SWIDTH 617 0
DWIDTH 9 0
BBX 7 10 1 0
BITMAP
c0
c0
c0
c0
c0
c0
c0
c0
de
f0
ENDCHAR
STARTCHAR M
ENCODING 77
SWIDTH 617 0
DWIDTH 9 0
BBX 8 10 1 0
BITMAP
c3
c3
e7
ef
fb
d3
c3
c3
c3
c3
ENDCHAR
STARTCHAR N
ENCODING 78
SWIDTH 617 0
DWIDTH 9 0
BBX 8 10 1 0
BITMAP
c3
c3
e3
f3
d3
db
cf
c7
c3
c3
ENDCHAR
STARTCHAR O
ENCODING 79
SWIDTH 617 0
DWIDTH 9 0
BBX 8 10 1 0
BITMAP
3e
63
c3
c3
c3
c3
c3
c3
c6
7c
ENDCHAR
STARTCHAR P
ENCODING 80
SWIDTH 617 0
DWIDTH 9 0
BBX 8 10 1 0
BITMAP
1e
33
e3
c3
c6
dc
f0
c0
c0
c0
ENDCHAR
STARTCHAR Q
ENCODING 81
SWIDTH 617 0
DWIDTH 9 0
BBX 8 12 1 -2
BITMAP
3e
63
c3
c3
c3
c3
f3
de
cc
7c
06
03
ENDCHAR
STARTCHAR R
ENCODING 82
SWIDTH 617 0
DWIDTH 9 0
BBX 8 10 1 0
BITMAP
1e
33
e3
c3
c6
fc
d8
cc
c6
c3
ENDCHAR
STARTCHAR S
ENCODING 83
SWIDTH 617 0
DWIDTH 9 0
BBX 8 10 1 0
BITMAP
7e
c3
c0
70
1c
06
03
c3
c3
7e
ENDCHAR
STARTCHAR T
ENCODING 84
SWIDTH 617 0
DWIDTH 9 0
BBX 8 10 1 0
BITMAP
0f
f8
18
18
18
18
18
18
18
18
ENDCHAR
STARTCHAR U
ENCODING 85
SWIDTH 617 0
DWIDTH 9 0
BBX 8 10 1 0
BITMAP
c3
c3
c3
c3
c3
c3
c6
c6
cc
78
ENDCHAR
STARTCHAR V
ENCODING 86
SWIDTH 617 0
DWIDTH 9 0
BBX 8 10 1 0
BITMAP
c3
c3
c3
c3
66
66
7c
38
30
30
ENDCHAR
STARTCHAR W
ENCODING 87
SWIDTH 617 0
DWIDTH 9 0
BBX 8 10 1 0
BITMAP
c3
c3
c3
c3
db
db
db
ff
e7
c3
ENDCHAR
STARTCHAR X
ENCODING 88
SWIDTH 617 0
DWIDTH 9 0
BBX 8 10 1 0
BITMAP
c3
c3
66
66
3c
3c
66
66
c3
c3
ENDCHAR
STARTCHAR Y
ENCODING 89
SWIDTH 617 0
DWIDTH 9 0
BBX 8 10 1 0
BITMAP
c3
c3
66
66
3c
18
18
18
18
18
ENDCHAR
STARTCHAR Z
ENCODING 90
SWIDTH 617 0
DWIDTH 9 0
BBX 8 10 1 0
BITMAP
1f
f6
04
0c
18
10
30
20
6f
f8
ENDCHAR
STARTCHAR bracketleft
ENCODING 91
SWIDTH 617 0
DWIDTH 9 0
BBX 5 12 3 -1
BITMAP
f8
c0
c0
c0
c0
c0
c0
c0
c0
c0
c0
f8
ENDCHAR
STARTCHAR backslash
ENCODING 92
SWIDTH 617 0
DWIDTH 9 0
BBX 7 11 1 -1
BITMAP
c0
40
60
20
30
10
18
08
0c
04
06
ENDCHAR
STARTCHAR bracketright
ENCODING 93
SWIDTH 617 0
DWIDTH 9 0
BBX 5 12 2 -1
BITMAP
f8
18
18
18
18
18
18
18
18
18
18
f8
ENDCHAR
STARTCHAR asciicircum
ENCODING 94
SWIDTH 617 0
DWIDTH 9 0
BBX 7 4 1 7
BITMAP
18
3c
66
c0
ENDCHAR
STARTCHAR underscore
ENCODING 95
SWIDTH 617 0
DWIDTH 9 0
BBX 8 1 1 -2
BITMAP
ff
ENDCHAR
STARTCHAR grave
ENCODING 96
SWIDTH 617 0
DWIDTH 9 0
BBX 4 3 3 7
BITMAP
c0
60
30
ENDCHAR
STARTCHAR a
ENCODING 97
SWIDTH 617 0
DWIDTH 9 0
BBX 8 7 1 0
BITMAP
3e
63
1f
73
c3
cf
7b
ENDCHAR
STARTCHAR b
ENCODING 98
SWIDTH 617 0
DWIDTH 9 0
BBX 8 10 1 0
BITMAP
c0
c0
c0
dc
f6
c3
c3
c6
dc
f0
ENDCHAR
STARTCHAR c
ENCODING 99
SWIDTH 617 0
DWIDTH 9 0
BBX 8 7 1 0
BITMAP
1e
33
60
c0
c0
c3
7e
ENDCHAR
STARTCHAR d
ENCODING 100
SWIDTH 617 0
DWIDTH 9 0
BBX 8 10 1 0
BITMAP
03
03
03
1f
73
c3
c7
cf
db
73
ENDCHAR
STARTCHAR e
ENCODING 101
SWIDTH 617 0
DWIDTH 9 0
BBX 8 7 1 0
BITMAP
3e
63
ce
f8
c0
c3
7e
ENDCHAR
STARTCHAR f
ENCODING 102
SWIDTH 617 0
DWIDTH 9 0
BBX 8 10 1 0
BITMAP
1e
33
30
30
3c
f0
30
30
30
30
ENDCHAR
STARTCHAR g
ENCODING 103
SWIDTH 617 0
DWIDTH 9 0
BBX 8 10 1 -3
BITMAP
3f
63
c3
c7
cf
db
73
03
c3
7e
ENDCHAR
STARTCHAR h
ENCODING 104
SWIDTH 617 0
DWIDTH 9 0
BBX 8 10 1 0
BITMAP
c0
c0
c0
ce
db
f3
e3
c3
c3
c3
ENDCHAR
STARTCHAR i
ENCODING 105
SWIDTH 617 0
DWIDTH 9 0
BBX 2 10 4 0
BITMAP
c0
c0
00
c0
c0
c0
c0
c0
c0
c0
ENDCHAR
STARTCHAR j
ENCODING 106
SWIDTH 617 0
DWIDTH 9 0
BBX 6 13 1 -3
BITMAP
0c
0c
00
0c
0c
0c
0c
0c
0c
0c
cc
cc
78
ENDCHAR
STARTCHAR k
ENCODING 107
SWIDTH 617 0
DWIDTH 9 0
BBX 8 10 1 0
BITMAP
c0
c0
c0
c6
cc
d8
f8
ec
c6
c3
ENDCHAR
STARTCHAR l
ENCODING 108
SWIDTH 617 0
DWIDTH 9 0
BBX 3 10 3 0
BITMAP
e0
60
60
60
60
60
60
60
60
60
ENDCHAR
STARTCHAR m
ENCODING 109
SWIDTH 617 0
DWIDTH 9 0
BBX 8 7 1 0
BITMAP
e6
db
db
db
c3
c3
c3
ENDCHAR
STARTCHAR n
ENCODING 110
SWIDTH 617 0
DWIDTH 9 0
BBX 8 7 1 0
BITMAP
ce
db
f3
e3
c3
c3
c3
ENDCHAR
STARTCHAR o
ENCODING 111
SWIDTH 617 0
DWIDTH 9 0
BBX 8 7 1 0
BITMAP
3e
63
c3
c3
c3
c6
7c
ENDCHAR
STARTCHAR p
ENCODING 112
SWIDTH 617 0
DWIDTH 9 0
BBX 8 10 1 -3
BITMAP
ce
db
f3
e3
c3
c6
fc
c0
c0
c0
ENDCHAR
STARTCHAR q
ENCODING 113
SWIDTH 617 0
DWIDTH 9 0
BBX 8 10 1 -3
BITMAP
73
db
cf
c7
c3
63
3f
03
03
03
ENDCHAR
STARTCHAR r
ENCODING 114
SWIDTH 617 0
DWIDTH 9 0
BBX 8 7 1 0
BITMAP
ce
db
f3
e0
c0
c0
c0
ENDCHAR
STARTCHAR s
ENCODING 115
SWIDTH 617 0
DWIDTH 9 0
BBX 8 7 1 0
BITMAP
7e
c3
70
1e
03
c3
7e
ENDCHAR
STARTCHAR t
ENCODING 116
SWIDTH 617 0
DWIDTH 9 0
BBX 7 10 1 0
BITMAP
10
30
30
3c
f0
30
30
36
3c
18
ENDCHAR
STARTCHAR u
ENCODING 117
SWIDTH 617 0
DWIDTH 9 0
BBX 8 7 1 0
BITMAP
c3
c3
c3
c7
cf
db
73
ENDCHAR
STARTCHAR v
ENCODING 118
SWIDTH 617 0
DWIDTH 9 0
BBX 8 7 1 0
BITMAP
c3
c3
c3
66
6c
38
18
ENDCHAR
STARTCHAR w
ENCODING 119
SWIDTH 617 0
DWIDTH 9 0
BBX 8 7 1 0
BITMAP
c3
c3
c3
db
db
ff
c3
ENDCHAR
STARTCHAR x
ENCODING 120
SWIDTH 617 0
DWIDTH 9 0
BBX 8 7 1 0
BITMAP
c3
66
3c
18
3c
66
c3
ENDCHAR
STARTCHAR y
ENCODING 121
SWIDTH 617 0
DWIDTH 9 0
BBX 8 10 1 -3
BITMAP
c3
c3
c3
c3
c3
66
3e
0c
d8
70
ENDCHAR
STARTCHAR z
ENCODING 122
SWIDTH 617 0
DWIDTH 9 0
BBX 8 7 1 0
BITMAP
ff
06
0c
18
30
60
ff
ENDCHAR
STARTCHAR braceleft
ENCODING 123
SWIDTH 617 0
DWIDTH 9 0
BBX 6 12 2 -1
BITMAP
1c
30
30
30
30
e0
e0
30
30
30
30
1c
ENDCHAR
STARTCHAR bar
ENCODING 124
SWIDTH 617 0
DWIDTH 9 0
BBX 2 12 4 -1
BITMAP
c0
c0
c0
c0
c0
c0
c0
c0
c0
c0
c0
c0
ENDCHAR
STARTCHAR braceright
ENCODING 125
SWIDTH 617 0
DWIDTH 9 0
BBX 6 12 2 -1
BITMAP
e0
30
30
30
30
1c
1c
30
30
30
30
e0
ENDCHAR
STARTCHAR asciitilde
ENCODING 126
SWIDTH 617 0
DWIDTH 9 0
BBX 7 2 1 4
BITMAP
76
dc
ENDCHAR
STARTCHAR C177
ENCODING 127
SWIDTH 617 0
DWIDTH 9 0
BBX 0 0 0 0
BITMAP
ENDCHAR
STARTCHAR nobreakspace
ENCODING 160
SWIDTH 617 0
DWIDTH 9 0
BBX 0 0 0 0
BITMAP
ENDCHAR
STARTCHAR exclamdown
ENCODING 161
SWIDTH 617 0
DWIDTH 9 0
BBX 2 10 4 0
BITMAP
c0
c0
00
c0
c0
c0
c0
c0
c0
c0
ENDCHAR
STARTCHAR cent
ENCODING 162
SWIDTH 617 0
DWIDTH 9 0
BBX 8 11 1 -2
BITMAP
08
08
1e
3b
68
c8
c8
cb
7e
08
08
ENDCHAR
STARTCHAR sterling
ENCODING 163
SWIDTH 617 0
DWIDTH 9 0
BBX 8 10 1 0
BITMAP
3c
66
60
f8
60
f8
60
60
63
7e
ENDCHAR
STARTCHAR currency
ENCODING 164
SWIDTH 617 0
DWIDTH 9 0
BBX 8 8 1 1
BITMAP
c3
7e
36
66
66
6c
7e
c3
ENDCHAR
STARTCHAR yen
ENCODING 165
SWIDTH 617 0
DWIDTH 9 0
BBX 8 11 1 -1
BITMAP
c3
c3
66
66
3c
18
7e
18
7e
18
18
ENDCHAR
STARTCHAR brokenbar
ENCODING 166
SWIDTH 617 0
DWIDTH 9 0
BBX 2 12 4 -1
BITMAP
c0
c0
c0
c0
c0
00
00
c0
c0
c0
c0
c0
ENDCHAR
STARTCHAR section
ENCODING 167
SWIDTH 617 0
DWIDTH 9 0
BBX 6 10 2 0
BITMAP
7c
c0
f8
6c
cc
cc
d8
7c
0c
f8
ENDCHAR
STARTCHAR diaeresis
ENCODING 168
SWIDTH 617 0
DWIDTH 9 0
BBX 6 2 2 10
BITMAP
cc
cc
ENDCHAR
STARTCHAR copyright
ENCODING 169
SWIDTH 617 0
DWIDTH 9 0
BBX 8 9 1 0
BITMAP
3e
41
9d
a1
a1
a5
99
82
7c
ENDCHAR
STARTCHAR ordfeminine
ENCODING 170
SWIDTH 617 0
DWIDTH 9 0
BBX 8 10 1 0
BITMAP
3e
63
1f
73
c3
cf
7b
00
00
ff
ENDCHAR
STARTCHAR guillemotleft
ENCODING 171
SWIDTH 617 0
DWIDTH 9 0
BBX 8 7 1 1
BITMAP
03
36
6c
d8
d8
6c
36
ENDCHAR
STARTCHAR notsign
ENCODING 172
SWIDTH 617 0
DWIDTH 9 0
BBX 7 4 1 2
BITMAP
fe
06
06
06
ENDCHAR
STARTCHAR hyphen
ENCODING 173
SWIDTH 617 0
DWIDTH 9 0
BBX 6 1 2 4
BITMAP
fc
ENDCHAR
STARTCHAR registered
ENCODING 174
SWIDTH 617 0
DWIDTH 9 0
BBX 8 9 1 0
BITMAP
3e
41
9d
a5
b9
a5
a5
82
7c
ENDCHAR
STARTCHAR macron
ENCODING 175
SWIDTH 617 0
DWIDTH 9 0
BBX 6 1 2 8
BITMAP
fc
ENDCHAR
STARTCHAR degree
ENCODING 176
SWIDTH 617 0
DWIDTH 9 0
BBX 6 4 2 6
BITMAP
78
cc
cc
78
ENDCHAR
STARTCHAR plusminus
ENCODING 177
SWIDTH 617 0
DWIDTH 9 0
BBX 6 8 2 0
BITMAP
30
30
fc
30
30
00
00
fc
ENDCHAR
STARTCHAR twosuperior
ENCODING 178
SWIDTH 617 0
DWIDTH 9 0
BBX 6 6 1 4
BITMAP
78
cc
18
30
64
fc
ENDCHAR
STARTCHAR threesuperior
ENCODING 179
SWIDTH 617 0
DWIDTH 9 0
BBX 6 6 1 4
BITMAP
fc
0c
38
0c
cc
78
ENDCHAR
STARTCHAR acute
ENCODING 180
SWIDTH 617 0
DWIDTH 9 0
BBX 4 3 3 9
BITMAP
30
60
c0
ENDCHAR
STARTCHAR mu
ENCODING 181
SWIDTH 617 0
DWIDTH 9 0
BBX 8 10 1 -3
BITMAP
63
63
63
63
67
6f
7b
60
60
c0
ENDCHAR
STARTCHAR paragraph
ENCODING 182
SWIDTH 617 0
DWIDTH 9 0
BBX 8 10 1 0
BITMAP
7c
ff
fb
fb
7b
3b
1f
1b
1b
1b
ENDCHAR
STARTCHAR periodcentered
ENCODING 183
SWIDTH 617 0
DWIDTH 9 0
BBX 4 4 3 2
BITMAP
60
f0
f0
60
ENDCHAR
STARTCHAR cedilla
ENCODING 184
SWIDTH 617 0
DWIDTH 9 0
BBX 6 3 1 -3
BITMAP
0c
18
f0
ENDCHAR
STARTCHAR onesuperior
ENCODING 185
SWIDTH 617 0
DWIDTH 9 0
BBX 3 6 2 4
BITMAP
60
e0
60
60
60
60
ENDCHAR
STARTCHAR masculine
ENCODING 186
SWIDTH 617 0
DWIDTH 9 0
BBX 8 10 1 0
BITMAP
3e
63
c3
c3
c3
c6
7c
00
00
ff
ENDCHAR
STARTCHAR guillemotright
ENCODING 187
SWIDTH 617 0
DWIDTH 9 0
BBX 8 7 1 0
BITMAP
6c
36
1b
1b
36
6c
c0
ENDCHAR
STARTCHAR onequarter
ENCODING 188
SWIDTH 617 0
DWIDTH 9 0
BBX 8 13 1 -2
BITMAP
60
e1
63
66
6c
18
30
66
ce
97
3e
06
06
ENDCHAR
STARTCHAR onehalf
ENCODING 189
SWIDTH 617 0
DWIDTH 9 0
BBX 8 13 1 -2
BITMAP
60
e1
63
66
6c
18
30
60
ce
9b
06
0d
1f
ENDCHAR
STARTCHAR threequarters
ENCODING 190
SWIDTH 617 0
DWIDTH 9 0
BBX 8 13 1 -2
BITMAP
e0
31
63
36
ec
18
30
66
ce
97
3e
06
06
ENDCHAR
STARTCHAR questiondown
ENCODING 191
SWIDTH 617 0
DWIDTH 9 0
BBX 8 10 1 0
BITMAP
0c
0c
00
0c
0c
18
30
63
c6
7c
ENDCHAR
STARTCHAR Agrave
ENCODING 192
SWIDTH 617 0
DWIDTH 9 0
BBX 8 12 1 0
BITMAP
30
18
0c
18
3c
24
66
66
7e
c3
c3
c3
ENDCHAR
STARTCHAR Aacute
ENCODING 193
SWIDTH 617 0
DWIDTH 9 0
BBX 8 12 1 0
BITMAP
0c
18
30
18
3c
24
66
66
7e
c3
c3
c3
ENDCHAR
STARTCHAR Acircumflex
ENCODING 194
SWIDTH 617 0
DWIDTH 9 0
BBX 8 12 1 0
BITMAP
18
3c
60
18
3c
24
66
66
7e
c3
c3
c3
ENDCHAR
STARTCHAR Atilde
ENCODING 195
SWIDTH 617 0
DWIDTH 9 0
BBX 8 12 1 0
BITMAP
03
76
dc
18
3c
24
66
66
7e
c3
c3
c3
ENDCHAR
STARTCHAR Adiaeresis
ENCODING 196
SWIDTH 617 0
DWIDTH 9 0
BBX 8 12 1 0
BITMAP
66
66
18
18
3c
24
66
66
7e
c3
c3
c3
ENDCHAR
STARTCHAR Aring
ENCODING 197
SWIDTH 617 0
DWIDTH 9 0
BBX 8 12 1 0
BITMAP
18
24
24
18
3c
24
66
66
7e
c3
c3
c3
ENDCHAR
STARTCHAR AE
ENCODING 198
SWIDTH 617 0
DWIDTH 9 0
BBX 8 10 1 0
BITMAP
3f
3e
3c
6c
6f
6e
7c
cc
cf
ce
ENDCHAR
STARTCHAR Ccedilla
ENCODING 199
SWIDTH 617 0
DWIDTH 9 0
BBX 8 13 1 -3
BITMAP
1e
33
60
c0
c0
c0
c0
c0
63
3e
0c
18
f0
ENDCHAR
STARTCHAR Egrave
ENCODING 200
SWIDTH 617 0
DWIDTH 9 0
BBX 7 12 1 0
BITMAP
60
30
18
1e
f0
c0
de
f0
c0
c0
de
f0
ENDCHAR
STARTCHAR Eacute
ENCODING 201
SWIDTH 617 0
DWIDTH 9 0
BBX 7 12 1 0
BITMAP
18
30
60
1e
f0
c0
de
f0
c0
c0
de
f0
ENDCHAR
STARTCHAR Ecircumflex
ENCODING 202
SWIDTH 617 0
DWIDTH 9 0
BBX 7 12 1 0
BITMAP
18
3c
60
1e
f0
c0
de
f0
c0
c0
de
f0
ENDCHAR
STARTCHAR Ediaeresis
ENCODING 203
SWIDTH 617 0
DWIDTH 9 0
BBX 7 12 1 0
BITMAP
66
66
00
1e
f0
c0
de
f0
c0
c0
de
f0
ENDCHAR
STARTCHAR Igrave
ENCODING 204
SWIDTH 617 0
DWIDTH 9 0
BBX 4 12 3 0
BITMAP
c0
60
30
70
e0
60
60
60
60
60
70
e0
ENDCHAR
STARTCHAR Iacute
ENCODING 205
SWIDTH 617 0
DWIDTH 9 0
BBX 4 12 3 0
BITMAP
30
60
c0
70
e0
60
60
60
60
60
70
e0
ENDCHAR
STARTCHAR Icircumflex
ENCODING 206
SWIDTH 617 0
DWIDTH 9 0
BBX 5 12 2 0
BITMAP
30
78
c0
38
70
30
30
30
30
30
38
70
ENDCHAR
STARTCHAR Idiaeresis
ENCODING 207
SWIDTH 617 0
DWIDTH 9 0
BBX 6 12 2 0
BITMAP
cc
cc
00
38
70
30
30
30
30
30
38
70
ENDCHAR
STARTCHAR ETH
ENCODING 208
SWIDTH 617 0
DWIDTH 9 0
BBX 8 10 1 0
BITMAP
7c
66
63
63
f3
63
63
66
7c
70
ENDCHAR
STARTCHAR Ntilde
ENCODING 209
SWIDTH 617 0
DWIDTH 9 0
BBX 8 12 1 0
BITMAP
03
76
dc
00
c3
e3
f3
d3
db
cf
c7
c3
ENDCHAR
STARTCHAR Ograve
ENCODING 210
SWIDTH 617 0
DWIDTH 9 0
BBX 8 12 1 0
BITMAP
30
18
00
3e
63
c3
c3
c3
c3
c3
c6
7c
ENDCHAR
STARTCHAR Oacute
ENCODING 211
SWIDTH 617 0
DWIDTH 9 0
BBX 8 12 1 0
BITMAP
0c
18
00
3e
63
c3
c3
c3
c3
c3
c6
7c
ENDCHAR
STARTCHAR Ocircumflex
ENCODING 212
SWIDTH 617 0
DWIDTH 9 0
BBX 8 12 1 0
BITMAP
18
3c
60
3e
63
c3
c3
c3
c3
c3
c6
7c
ENDCHAR
STARTCHAR Otilde
ENCODING 213
SWIDTH 617 0
DWIDTH 9 0
BBX 8 12 1 0
BITMAP
03
76
dc
3e
63
c3
c3
c3
c3
c3
c6
7c
ENDCHAR
STARTCHAR Odiaeresis
ENCODING 214
SWIDTH 617 0
DWIDTH 9 0
BBX 8 12 1 0
BITMAP
66
66
00
3e
63
c3
c3
c3
c3
c3
c6
7c
ENDCHAR
STARTCHAR multiply
ENCODING 215
SWIDTH 617 0
DWIDTH 9 0
BBX 6 5 2 2
BITMAP
cc
78
30
78
cc
ENDCHAR
STARTCHAR Ooblique
ENCODING 216
SWIDTH 617 0
DWIDTH 9 0
BBX 8 12 1 -1
BITMAP
06
3e
67
cf
cb
db
d3
d3
f3
e6
7c
60
ENDCHAR
STARTCHAR Ugrave
ENCODING 217
SWIDTH 617 0
DWIDTH 9 0
BBX 8 12 1 0
BITMAP
30
18
0c
c3
c3
c3
c3
c3
c6
c6
cc
78
ENDCHAR
STARTCHAR Uacute
ENCODING 218
SWIDTH 617 0
DWIDTH 9 0
BBX 8 12 1 0
BITMAP
0c
18
30
c3
c3
c3
c3
c3
c6
c6
cc
78
ENDCHAR
STARTCHAR Ucircumflex
ENCODING 219
SWIDTH 617 0
DWIDTH 9 0
BBX 8 12 1 0
BITMAP
18
3c
60
03
c3
c3
c3
c3
c6
c6
cc
78
ENDCHAR
STARTCHAR Udiaeresis
ENCODING 220
SWIDTH 617 0
DWIDTH 9 0
BBX 8 12 1 0
BITMAP
66
66
00
c3
c3
c3
c3
c3
c6
c6
cc
78
ENDCHAR
STARTCHAR Yacute
ENCODING 221
SWIDTH 617 0
DWIDTH 9 0
BBX 8 12 1 0
BITMAP
0c
18
30
c3
c3
66
66
3c
18
18
18
18
ENDCHAR
STARTCHAR THORN
ENCODING 222
SWIDTH 617 0
DWIDTH 9 0
BBX 8 10 1 0
BITMAP
c0
c0
de
f3
c3
c3
c6
fc
c0
c0
ENDCHAR
STARTCHAR ssharp
ENCODING 223
SWIDTH 617 0
DWIDTH 9 0
BBX 8 10 1 0
BITMAP
1e
33
e3
c2
cc
c2
c3
c3
ce
d8
ENDCHAR
STARTCHAR agrave
ENCODING 224
SWIDTH 617 0
DWIDTH 9 0
BBX 8 11 1 0
BITMAP
30
18
0c
00
3e
63
1f
73
c3
cf
7b
ENDCHAR
STARTCHAR aacute
ENCODING 225
SWIDTH 617 0
DWIDTH 9 0
BBX 8 11 1 0
BITMAP
06
0c
18
00
3e
63
1f
73
c3
cf
7b
ENDCHAR
STARTCHAR acircumflex
ENCODING 226
SWIDTH 617 0
DWIDTH 9 0
BBX 8 12 1 0
BITMAP
0c
1e
33
60
00
3e
63
1f
73
c3
cf
7b
ENDCHAR
STARTCHAR atilde
ENCODING 227
SWIDTH 617 0
DWIDTH 9 0
BBX 8 11 1 0
BITMAP
03
76
dc
00
3e
63
1f
73
c3
cf
7b
ENDCHAR
STARTCHAR adiaeresis
ENCODING 228
SWIDTH 617 0
DWIDTH 9 0
BBX 8 10 1 0
BITMAP
36
36
00
3e
63
1f
73
c3
cf
7b
ENDCHAR
STARTCHAR aring
ENCODING 229
SWIDTH 617 0
DWIDTH 9 0
BBX 8 12 1 0
BITMAP
1c
36
36
1c
00
3e
63
1f
73
c3
cf
7b
ENDCHAR
STARTCHAR ae
ENCODING 230
SWIDTH 617 0
DWIDTH 9 0
BBX 8 7 1 0
BITMAP
7e
db
3b
7e
dc
db
6e
ENDCHAR
STARTCHAR ccedilla
ENCODING 231
SWIDTH 617 0
DWIDTH 9 0
BBX 8 10 1 -3
BITMAP
1e
33
60
c0
c0
c3
7e
0c
18
f0
ENDCHAR
STARTCHAR egrave
ENCODING 232
SWIDTH 617 0
DWIDTH 9 0
BBX 8 11 1 0
BITMAP
60
30
18
00
3e
63
ce
f8
c0
c3
7e
ENDCHAR
STARTCHAR eacute
ENCODING 233
SWIDTH 617 0
DWIDTH 9 0
BBX 8 11 1 0
BITMAP
06
0c
18
00
3e
63
ce
f8
c0
c3
7e
ENDCHAR
STARTCHAR ecircumflex
ENCODING 234
SWIDTH 617 0
DWIDTH 9 0
BBX 8 12 1 0
BITMAP
18
3c
66
c0
00
3e
63
ce
f8
c0
c3
7e
ENDCHAR
STARTCHAR ediaeresis
ENCODING 235
SWIDTH 617 0
DWIDTH 9 0
BBX 8 10 1 0
BITMAP
66
66
00
3e
63
ce
f8
c0
c3
7e
ENDCHAR
STARTCHAR igrave
ENCODING 236
SWIDTH 617 0
DWIDTH 9 0
BBX 4 11 2 0
BITMAP
c0
60
30
00
30
30
30
30
30
30
30
ENDCHAR
STARTCHAR iacute
ENCODING 237
SWIDTH 617 0
DWIDTH 9 0
BBX 4 11 4 0
BITMAP
30
60
c0
00
c0
c0
c0
c0
c0
c0
c0
ENDCHAR
STARTCHAR icircumflex
ENCODING 238
SWIDTH 617 0
DWIDTH 9 0
BBX 7 12 1 0
BITMAP
18
3c
66
c0
00
18
18
18
18
18
18
18
ENDCHAR
STARTCHAR idiaeresis
ENCODING 239
SWIDTH 617 0
DWIDTH 9 0
BBX 6 10 2 0
BITMAP
cc
cc
00
30
30
30
30
30
30
30
ENDCHAR
STARTCHAR eth
ENCODING 240
SWIDTH 617 0
DWIDTH 9 0
BBX 8 11 1 0
BITMAP
60
3c
78
0c
3e
63
c3
c3
c3
c6
7c
ENDCHAR
STARTCHAR ntilde
ENCODING 241
SWIDTH 617 0
DWIDTH 9 0
BBX 8 11 1 0
BITMAP
03
76
dc
00
ce
db
f3
e3
c3
c3
c3
ENDCHAR
STARTCHAR ograve
ENCODING 242
SWIDTH 617 0
DWIDTH 9 0
BBX 8 11 1 0
BITMAP
60
30
18
00
3e
63
c3
c3
c3
c6
7c
ENDCHAR
STARTCHAR oacute
ENCODING 243
SWIDTH 617 0
DWIDTH 9 0
BBX 8 11 1 0
BITMAP
06
0c
18
00
3e
63
c3
c3
c3
c6
7c
ENDCHAR
STARTCHAR ocircumflex
ENCODING 244
SWIDTH 617 0
DWIDTH 9 0
BBX 8 12 1 0
BITMAP
18
3c
66
c0
00
3e
63
c3
c3
c3
c6
7c
ENDCHAR
STARTCHAR otilde
ENCODING 245
SWIDTH 617 0
DWIDTH 9 0
BBX 8 11 1 0
BITMAP
03
76
dc
00
3e
63
c3
c3
c3
c6
7c
ENDCHAR
STARTCHAR odiaeresis
ENCODING 246
SWIDTH 617 0
DWIDTH 9 0
BBX 8 10 1 0
BITMAP
66
66
00
3e
63
c3
c3
c3
c6
7c
ENDCHAR
STARTCHAR division
ENCODING 247
SWIDTH 617 0
DWIDTH 9 0
BBX 8 7 1 1
BITMAP
18
18
00
ff
00
18
18
ENDCHAR
STARTCHAR oslash
ENCODING 248
SWIDTH 617 0
DWIDTH 9 0
BBX 8 9 1 -1
BITMAP
06
3e
6f
cb
db
d3
f6
7c
60
ENDCHAR
STARTCHAR ugrave
ENCODING 249
SWIDTH 617 0
DWIDTH 9 0
BBX 8 11 1 0
BITMAP
60
30
18
00
c3
c3
c3
c7
cf
db
73
ENDCHAR
STARTCHAR uacute
ENCODING 250
SWIDTH 617 0
DWIDTH 9 0
BBX 8 11 1 0
BITMAP
0c
18
30
00
c3
c3
c3
c7
cf
db
73
ENDCHAR
STARTCHAR ucircumflex
ENCODING 251
SWIDTH 617 0
DWIDTH 9 0
BBX 8 12 1 0
BITMAP
18
3c
66
c0
00
c3
c3
c3
c7
cf
db
73
ENDCHAR
STARTCHAR udiaeresis
ENCODING 252
SWIDTH 617 0
DWIDTH 9 0
BBX 8 10 1 0
BITMAP
66
66
00
c3
c3
c3
c7
cf
db
73
ENDCHAR
STARTCHAR yacute
ENCODING 253
SWIDTH 617 0
DWIDTH 9 0
BBX 8 14 1 -3
BITMAP
0c
18
30
00
c3
c3
c3
c3
c3
66
3e
0c
d8
70
ENDCHAR
STARTCHAR thorn
ENCODING 254
SWIDTH 617 0
DWIDTH 9 0
BBX 8 11 1 -2
BITMAP
c0
c0
de
f3
c3
c3
c3
c6
fc
c0
c0
ENDCHAR
STARTCHAR ydiaeresis
ENCODING 255
SWIDTH 617 0
DWIDTH 9 0
BBX 8 13 1 -3
BITMAP
66
66
00
c3
c3
c3
c3
c3
66
3e
0c
d8
70
ENDCHAR
ENDFONT
